<svg xmlns="http://www.w3.org/2000/svg" id="aaa444b1-ec30-4a51-a2af-6b879f86a07d" width="817.439" height="768.793" data-name="Layer 1" viewBox="0 0 817.439 768.793"><title>energizer</title><ellipse cx="401.055" cy="731.114" fill="#3f3d56" rx="243.5" ry="37.679"/><path fill="#a0616a" d="M585.88825,225.23478s5.94383,27.34161-14.26519,38.0405c0,0,4.75506,60.627,35.663,61.81581s30.9079-32.09667,30.9079-32.09667l-4.75506-17.83149s-22.58654-13.07642-8.32136-38.0405Z" transform="translate(-191.28027 -65.60326)"/><circle cx="420.166" cy="118.619" r="55.872" fill="#2f2e41"/><polygon fill="#a0616a" points="361.323 286.829 361.323 353.4 459.99 349.834 452.857 284.452 361.323 286.829"/><circle cx="420.761" cy="142.989" r="35.663" fill="#a0616a"/><path fill="#a0616a" d="M568.05676,263.27528s-20.209-3.5663-27.3416,0-15.454,2.37753-23.77532,36.85173l-15.454,71.32594s-2.37753,21.39778,15.454,19.02024,16.64272-33.28543,16.64272-33.28543l11.88766-27.34161L566.868,306.07084Z" transform="translate(-191.28027 -65.60326)"/><path fill="#a0616a" d="M635.8164,277.54046s28.53038,3.5663,30.90791,19.02025-10.69889,78.45853-10.69889,78.45853l-20.209-20.209L646.51529,315.581Z" transform="translate(-191.28027 -65.60326)"/><path fill="#d0cde1" d="M562.70732,262.68089l.59438,21.99217L546.659,320.336l3.5663,43.98433,95.38867.28742-.28742-20.49643s13.07642-16.64272,5.94383-30.90791-12.482-36.25735-12.482-36.25735l-9.51013-5.94383s16.04834,37.44612-17.2371,31.50229-35.06858-43.38994-35.06858-43.38994Z" transform="translate(-191.28027 -65.60326)"/><path fill="#a0616a" d="M534.77133,502.21716l-16.64272,93.91248-19.02025,136.708-8.32136,15.454,7.13259,15.45395,20.209-9.51012L526.45,717.38373s28.53037-34.4742,23.77531-78.45853L601.3422,516.48235Z" transform="translate(-191.28027 -65.60326)"/><path fill="#a0616a" d="M616.79615,511.72729l11.88766,116.499s-2.37753,32.09667,4.75506,60.627,11.88766,78.45853,11.88766,78.45853h23.77531l-4.75506-146.21817,15.454-118.87656Z" transform="translate(-191.28027 -65.60326)"/><path fill="#2f2e41" d="M600.15344,404.73838s-49.92816-3.56629-49.92816,2.37753v11.88766s-9.51012,15.45395-8.32136,29.71914-45.17309,46.36186-15.45395,60.627,68.9484,19.02025,74.89223,14.26519,9.51013-23.77531,9.51013-23.77531,0,21.39778,10.69889,22.58655,74.89223-11.88766,74.89223-22.58655-47.57226-106.39471-47.57226-106.39471S614.41862,405.92715,600.15344,404.73838Z" transform="translate(-191.28027 -65.60326)"/><path fill="#2f2e41" d="M496.73083,749.4804s-4.75506-8.32135-9.51013-2.37753-22.58654,20.209-22.58654,20.209S420.64983,779.19954,450.369,797.031c0,0,26.15284,0,36.85173-8.32136s21.39778-4.75506,21.39778-4.75506,16.64272-1.18877,17.83149-8.32136-6.22745-30.67081-6.22745-30.67081S512.18478,755.42423,496.73083,749.4804Z" transform="translate(-191.28027 -65.60326)"/><path fill="#2f2e41" d="M654.83665,756.613s-14.26518-3.5663-14.26518,0-20.209,24.96408-3.5663,34.4742,19.02025,7.13259,20.209,16.64272,32.09667,16.64272,36.85174,10.69889,8.32136-16.64272,2.37753-21.39778-24.96408-34.4742-24.96408-40.418S654.83665,756.613,654.83665,756.613Z" transform="translate(-191.28027 -65.60326)"/><ellipse cx="434.741" cy="227.477" fill="#3f3d56" rx="4.173" ry="2.087"/><ellipse cx="435.216" cy="231.934" fill="#6c63ff" rx="8.536" ry="4.363"/><rect width="20.487" height="14.986" x="424.782" y="234.59" fill="#6c63ff"/><rect width="48.562" height="73.413" x="410.65" y="258.018" fill="#6c63ff"/><path fill="#6c63ff" d="M652.67411,322.7673c0,7.2289-11.91005,4.74242-26.36783,4.74242s-26.74723,2.29678-26.74723-4.93211,12.28944-14.79634,26.74723-14.79634S652.67411,315.53841,652.67411,322.7673Z" transform="translate(-191.28027 -65.60326)"/><rect width="52.546" height="5.691" x="408.848" y="264.942" fill="#3f3d56"/><rect width="52.546" height="5.691" x="409.227" y="319.954" fill="#3f3d56"/><rect width="52.546" height="11.382" x="408.848" y="295.293" fill="#3f3d56"/><path fill="#6c63ff" d="M652.29472,394.47263c0,2.40963.765,9.29514-25.41935,9.29514-29.59268,0-27.12662-7.2649-27.12662-9.67453s13.0879.94848,27.12662.94848S652.29472,392.063,652.29472,394.47263Z" transform="translate(-191.28027 -65.60326)"/><rect width="24.281" height="8.157" x="422.696" y="231.934" fill="#3f3d56"/><rect width="3.225" height="17.831" x="412.926" y="275.47" fill="#fff" opacity=".1"/><rect width="3.225" height="6.639" x="412.926" y="309.425" fill="#fff" opacity=".1"/><path fill="#a0616a" d="M660.78048,360.75405s-22.58655-29.71913-21.39778-8.32135,14.26519,32.09667,16.64272,32.09667S667.91307,382.15184,660.78048,360.75405Z" transform="translate(-191.28027 -65.60326)"/><path d="M552.60281,383.64728c1.78315.2877,30.31352-10.41119,30.31352-10.41119l17.83149-2.37753-48.145,20.13413Z" opacity=".1" transform="translate(-191.28027 -65.60326)"/><path fill="#a0616a" d="M515.75108,363.13159s9.51012-5.94383,28.53037-3.5663l36.85174-9.51013s34.4742-20.209,47.55062,4.75507S579.94442,371.453,579.94442,371.453s-41.6068,33.28543-66.57087,15.454Z" transform="translate(-191.28027 -65.60326)"/><circle cx="369.05" cy="78.201" r="16.643" fill="#2f2e41"/><circle cx="471.283" cy="73.446" r="16.643" fill="#2f2e41"/><path fill="#2f2e41" d="M644.73215,131.91668a16.64235,16.64235,0,0,1,14.85956-16.54433,16.64274,16.64274,0,1,0,0,33.08866A16.64235,16.64235,0,0,1,644.73215,131.91668Z" transform="translate(-191.28027 -65.60326)"/><path fill="#2f2e41" d="M541.73413,157.26631a16.64236,16.64236,0,0,1-.96479-22.21691,16.81036,16.81036,0,0,0-1.34253,1.17768,16.64272,16.64272,0,0,0,23.29511,23.77516,16.81157,16.81157,0,0,0,1.20482-1.31823A16.64236,16.64236,0,0,1,541.73413,157.26631Z" transform="translate(-191.28027 -65.60326)"/><path fill="#2f2e41" d="M611.44671,158.06952c-19.69611,0-35.663,9.314-35.663,20.8034,0,5.14084,3.20946,9.83924,8.50725,13.469l6.86551-4.97454-1.867,7.79322c.77468.359,1.5657.70648,2.39074,1.02761l10.25636-11.9658v14.7a59.86944,59.86944,0,0,0,9.51013.75394c19.69611,0,35.663-9.314,35.663-20.8034S631.14282,158.06952,611.44671,158.06952Z" transform="translate(-191.28027 -65.60326)"/><path fill="#6c63ff" d="M645.92091,139.04927s-2.58476,11.88766,13.56719,16.64272" transform="translate(-191.28027 -65.60326)"/><path fill="#6c63ff" d="M575.78374,141.21292s5.94383,13.2903-11.88766,19.23413" transform="translate(-191.28027 -65.60326)"/><path fill="#3f3d56" d="M818.09989,724.9368a28.84306,28.84306,0,0,0-11.20545-46.239,20.47144,20.47144,0,1,0-20.50342,0,28.84292,28.84292,0,0,0-11.20532,46.239,40.01239,40.01239,0,1,0,42.91419,0Z" transform="translate(-191.28027 -65.60326)"/><circle cx="257.572" cy="394.878" r="29.789" fill="#6c63ff"/><ellipse cx="433.066" cy="473.261" fill="#fff" rx="6.77" ry="14.895" transform="translate(-392.58842 312.30692) rotate(-38.9914)"/><circle cx="62.722" cy="306.977" r="29.789" fill="#3f3d56"/><ellipse cx="234.392" cy="367.293" fill="#fff" rx="14.895" ry="6.77" transform="translate(-372.53686 432.37915) rotate(-74.90993)"/><circle cx="18.569" cy="131.924" r="18.564" fill="#3f3d56"/><ellipse cx="197.628" cy="194.232" fill="#fff" rx="9.282" ry="4.219" transform="translate(-232.63624 268.87631) rotate(-74.90993)"/><circle cx="210.916" cy="591.181" r="18.564" fill="#3f3d56"/><ellipse cx="389.975" cy="653.489" fill="#fff" rx="9.282" ry="4.219" transform="matrix(0.26034, -0.96552, 0.96552, 0.26034, -533.78592, 794.28638)"/><circle cx="787.65" cy="373.326" r="29.789" fill="#3f3d56"/><ellipse cx="767.34" cy="373.326" fill="#fff" rx="6.77" ry="14.895"/><circle cx="691.513" cy="182.406" r="29.789" fill="#6c63ff"/><ellipse cx="870.878" cy="231.56" fill="#fff" rx="14.895" ry="6.77" transform="translate(-161.52557 489.31459) rotate(-35.91853)"/><circle cx="767.34" cy="18.566" r="18.564" fill="#6c63ff"/><ellipse cx="951.195" cy="73.918" fill="#fff" rx="9.282" ry="4.219" transform="translate(-53.77544 506.45559) rotate(-35.91853)"/><circle cx="627.873" cy="496.545" r="18.564" fill="#3f3d56"/><ellipse cx="811.728" cy="551.897" fill="#fff" rx="9.282" ry="4.219" transform="translate(-360.69368 515.52627) rotate(-35.91853)"/></svg>